<?xml version="1.0" encoding="UTF-8" standalone="no"?>
<!DOCTYPE svg PUBLIC "-//W3C//DTD SVG 1.1//EN"
 "http://www.w3.org/Graphics/SVG/1.1/DTD/svg11.dtd">
<!-- Generated by graphviz version 2.43.0 (0)
 -->
<!-- Title: %3 Pages: 1 -->
<svg width="139pt" height="116pt"
 viewBox="0.00 0.00 139.29 116.00" xmlns="http://www.w3.org/2000/svg" xmlns:xlink="http://www.w3.org/1999/xlink">
<g id="graph0" class="graph" transform="scale(1 1) rotate(0) translate(4 112)">
<title>%3</title>
<polygon fill="white" stroke="transparent" points="-4,4 -4,-112 135.29,-112 135.29,4 -4,4"/>
<!-- n0 -->
<g id="node1" class="node">
<title>n0</title>
<ellipse fill="none" stroke="black" cx="65.64" cy="-90" rx="65.79" ry="18"/>
<text text-anchor="middle" x="65.64" y="-86.3" font-family="bold helvetica" font-size="14.00">n0: &lt;unfold&gt;</text>
</g>
<!-- n1 -->
<g id="node2" class="node">
<title>n1</title>
<ellipse fill="lightgrey" stroke="black" cx="65.64" cy="-18" rx="53.89" ry="18"/>
<text text-anchor="middle" x="65.64" y="-14.3" font-family="bold helvetica" font-size="14.00">n1: &lt;fold&gt;</text>
</g>
<!-- n0&#45;&gt;n1 -->
<g id="edge1" class="edge">
<title>n0&#45;&gt;n1</title>
<path fill="none" stroke="black" d="M59.77,-72.05C58.95,-64.35 58.71,-55.03 59.04,-46.36"/>
<polygon fill="black" stroke="black" points="62.54,-46.49 59.73,-36.28 55.55,-46.01 62.54,-46.49"/>
</g>
<!-- n1&#45;&gt;n0 -->
<g id="edge2" class="edge">
<title>n1&#45;&gt;n0</title>
<path fill="none" stroke="black" stroke-dasharray="5,2" d="M71.56,-36.28C72.36,-44.03 72.58,-53.36 72.23,-62.01"/>
<polygon fill="black" stroke="black" points="68.74,-61.83 71.52,-72.05 75.72,-62.33 68.74,-61.83"/>
</g>
</g>
</svg>
